G04 Layer_Color=16711935*
%FSLAX25Y25*%
%MOIN*%
G70*
G01*
G75*
%ADD41O,0.10642X0.07690*%
%ADD42C,0.07493*%
%ADD43R,0.07493X0.07493*%
%ADD44C,0.06800*%
%ADD45C,0.03162*%
D41*
X18504Y147047D02*
D03*
Y156890D02*
D03*
D42*
X190709Y85905D02*
D03*
X180709D02*
D03*
X190709Y95906D02*
D03*
X180709D02*
D03*
X190709Y105905D02*
D03*
D43*
X180709D02*
D03*
D44*
X36602Y15929D02*
D03*
X46445D02*
D03*
X56287D02*
D03*
X75972D02*
D03*
X66130D02*
D03*
X95657D02*
D03*
X85815D02*
D03*
X115342D02*
D03*
X105500D02*
D03*
X135028D02*
D03*
X125185D02*
D03*
X154713D02*
D03*
X144870D02*
D03*
X174398D02*
D03*
X164555D02*
D03*
X184240D02*
D03*
Y196047D02*
D03*
X164555D02*
D03*
X174398D02*
D03*
X144870D02*
D03*
X154713D02*
D03*
X125185D02*
D03*
X135028D02*
D03*
X105500D02*
D03*
X115342D02*
D03*
X85815D02*
D03*
X95657D02*
D03*
X66130D02*
D03*
X75972D02*
D03*
X56287D02*
D03*
X46445D02*
D03*
X36602D02*
D03*
D45*
X153937Y185039D02*
D03*
X160236D02*
D03*
X177953Y185071D02*
D03*
X185039Y184645D02*
D03*
X185827Y189370D02*
D03*
X196457Y157480D02*
D03*
X174409Y190945D02*
D03*
X176378Y157480D02*
D03*
X161268Y165748D02*
D03*
X189370Y142520D02*
D03*
X181890D02*
D03*
X159843Y140551D02*
D03*
X168504Y142520D02*
D03*
X150000Y185433D02*
D03*
X161024Y129921D02*
D03*
X156299D02*
D03*
X175591Y120866D02*
D03*
X169685Y170866D02*
D03*
X150394Y165748D02*
D03*
X77953Y167323D02*
D03*
X70866Y155905D02*
D03*
X57480Y151575D02*
D03*
X66142Y188189D02*
D03*
X57087Y189370D02*
D03*
X49213Y161417D02*
D03*
X80564Y143701D02*
D03*
X32087Y156102D02*
D03*
X35827Y180709D02*
D03*
X33464Y146456D02*
D03*
X76772Y140551D02*
D03*
X63386Y131890D02*
D03*
X95669Y141732D02*
D03*
X40551Y131496D02*
D03*
X93701Y137008D02*
D03*
X47244Y131496D02*
D03*
X66929Y126772D02*
D03*
X53150Y180709D02*
D03*
X109843Y77559D02*
D03*
X103150Y110236D02*
D03*
X65354Y111810D02*
D03*
X78569Y102756D02*
D03*
X93307Y101969D02*
D03*
X112992D02*
D03*
X137402Y117717D02*
D03*
X29921Y116535D02*
D03*
X77559Y98819D02*
D03*
X185512Y90551D02*
D03*
X29921Y144488D02*
D03*
X144488Y54331D02*
D03*
X146063Y40945D02*
D03*
X43701Y51181D02*
D03*
X46850Y40945D02*
D03*
X66535D02*
D03*
X86221Y41339D02*
D03*
X105905Y40945D02*
D03*
X184646Y41339D02*
D03*
X166142Y40945D02*
D03*
X81889Y159842D02*
D03*
X118110Y167717D02*
D03*
X140551Y157087D02*
D03*
X120865Y159842D02*
D03*
X100000Y157874D02*
D03*
X98425Y167717D02*
D03*
X183858Y54724D02*
D03*
X164173Y51968D02*
D03*
X120079Y35433D02*
D03*
X69291Y50787D02*
D03*
X88188Y53543D02*
D03*
X108268Y52362D02*
D03*
X127165Y50787D02*
D03*
X172441Y66535D02*
D03*
X166535Y96063D02*
D03*
X94488Y75590D02*
D03*
X166535Y85827D02*
D03*
X59842Y70472D02*
D03*
X168504Y105905D02*
D03*
X102756Y143307D02*
D03*
X111417Y143701D02*
D03*
X118504Y144095D02*
D03*
X137795Y143307D02*
D03*
Y167028D02*
D03*
X46850Y66142D02*
D03*
X66535D02*
D03*
X80709D02*
D03*
X101969Y66929D02*
D03*
X181102D02*
D03*
X159843Y67323D02*
D03*
X137402Y68110D02*
D03*
X112992Y69685D02*
D03*
M02*
