G04 Layer_Color=8388736*
%FSLAX25Y25*%
%MOIN*%
G70*
G01*
G75*
%ADD32R,0.04540X0.04147*%
%ADD33R,0.02965X0.05524*%
%ADD34R,0.04343X0.04737*%
%ADD35R,0.04737X0.04343*%
%ADD36O,0.02965X0.07690*%
%ADD37O,0.07690X0.02965*%
%ADD38R,0.07200X0.04300*%
%ADD39R,0.07200X0.13300*%
%ADD40R,0.06902X0.03162*%
%ADD41O,0.10642X0.07690*%
%ADD42C,0.07493*%
%ADD43R,0.07493X0.07493*%
%ADD44C,0.06800*%
%ADD45C,0.03162*%
D32*
X188583Y170669D02*
D03*
Y175787D02*
D03*
X164173Y170669D02*
D03*
Y175787D02*
D03*
X179527Y147441D02*
D03*
Y152559D02*
D03*
X159449Y147441D02*
D03*
Y152559D02*
D03*
X57480Y137205D02*
D03*
Y142323D02*
D03*
X37795Y136811D02*
D03*
Y141929D02*
D03*
X24803Y171063D02*
D03*
Y176181D02*
D03*
X63386Y166339D02*
D03*
Y171457D02*
D03*
D33*
X150197Y170472D02*
D03*
X153937D02*
D03*
X157677D02*
D03*
Y180709D02*
D03*
X153937D02*
D03*
X150197D02*
D03*
X174213Y170472D02*
D03*
X177953D02*
D03*
X181693D02*
D03*
Y180709D02*
D03*
X177953D02*
D03*
X174213D02*
D03*
X63583Y136614D02*
D03*
X67323D02*
D03*
X71063D02*
D03*
Y146850D02*
D03*
X67323D02*
D03*
X63583D02*
D03*
X32087Y166142D02*
D03*
X35827D02*
D03*
X39567D02*
D03*
Y176378D02*
D03*
X35827D02*
D03*
X32087D02*
D03*
X49409Y166142D02*
D03*
X53150D02*
D03*
X56890D02*
D03*
Y176378D02*
D03*
X53150D02*
D03*
X49409D02*
D03*
X43898Y136614D02*
D03*
X47638D02*
D03*
X51378D02*
D03*
Y146850D02*
D03*
X47638D02*
D03*
X43898D02*
D03*
X165551Y147244D02*
D03*
X169291D02*
D03*
X173031D02*
D03*
Y157480D02*
D03*
X169291D02*
D03*
X165551D02*
D03*
X185630Y147244D02*
D03*
X189370D02*
D03*
X193110D02*
D03*
Y157480D02*
D03*
X189370D02*
D03*
X185630D02*
D03*
D34*
X186516Y124016D02*
D03*
X181201D02*
D03*
X19685Y127559D02*
D03*
X13386D02*
D03*
X18209Y87008D02*
D03*
X23524D02*
D03*
X38484Y77953D02*
D03*
X33169D02*
D03*
D35*
X48819Y126673D02*
D03*
Y121358D02*
D03*
X86221Y165354D02*
D03*
Y159055D02*
D03*
X70079Y161417D02*
D03*
Y167717D02*
D03*
X58268Y113386D02*
D03*
Y119685D02*
D03*
X178347Y44488D02*
D03*
Y50787D02*
D03*
X190551Y46457D02*
D03*
Y40157D02*
D03*
X111811Y46457D02*
D03*
Y40157D02*
D03*
X100000Y44094D02*
D03*
Y50394D02*
D03*
X92126Y46457D02*
D03*
Y40157D02*
D03*
X80709Y44488D02*
D03*
Y50787D02*
D03*
X67323Y121555D02*
D03*
Y116240D02*
D03*
X146063Y163386D02*
D03*
Y157087D02*
D03*
X120079Y43701D02*
D03*
Y50000D02*
D03*
X130315Y161811D02*
D03*
Y168110D02*
D03*
X131102Y46457D02*
D03*
Y40157D02*
D03*
X124802Y162991D02*
D03*
Y156692D02*
D03*
X37008Y44882D02*
D03*
Y51181D02*
D03*
X140551Y44094D02*
D03*
Y50394D02*
D03*
X110630Y161417D02*
D03*
Y167717D02*
D03*
X53150Y46457D02*
D03*
Y40157D02*
D03*
X151181Y46457D02*
D03*
Y40157D02*
D03*
X104724Y163779D02*
D03*
Y157480D02*
D03*
X61024Y43701D02*
D03*
Y50000D02*
D03*
X158268Y44094D02*
D03*
Y50394D02*
D03*
X92126Y161811D02*
D03*
Y168110D02*
D03*
X72835Y46457D02*
D03*
Y40157D02*
D03*
X170472Y46457D02*
D03*
Y40157D02*
D03*
D36*
X122047Y86024D02*
D03*
X118898D02*
D03*
X115748D02*
D03*
X112598D02*
D03*
X109449D02*
D03*
X106299D02*
D03*
X103150D02*
D03*
X100000D02*
D03*
X96850D02*
D03*
X93701D02*
D03*
X90551D02*
D03*
Y130512D02*
D03*
X93701D02*
D03*
X96850D02*
D03*
X100000D02*
D03*
X103150D02*
D03*
X106299D02*
D03*
X109449D02*
D03*
X112598D02*
D03*
X115748D02*
D03*
X118898D02*
D03*
X122047D02*
D03*
D37*
X84055Y92520D02*
D03*
Y95669D02*
D03*
Y98819D02*
D03*
Y101969D02*
D03*
Y105118D02*
D03*
Y108268D02*
D03*
Y111417D02*
D03*
Y114567D02*
D03*
Y117717D02*
D03*
Y120866D02*
D03*
Y124016D02*
D03*
X128543D02*
D03*
Y120866D02*
D03*
Y117717D02*
D03*
Y114567D02*
D03*
Y111417D02*
D03*
Y108268D02*
D03*
Y105118D02*
D03*
Y101969D02*
D03*
Y98819D02*
D03*
Y95669D02*
D03*
Y92520D02*
D03*
D38*
X19683Y119730D02*
D03*
Y110630D02*
D03*
Y101530D02*
D03*
D39*
X44883Y110630D02*
D03*
D40*
X95965Y62795D02*
D03*
Y55315D02*
D03*
X104823Y59055D02*
D03*
X114665Y31496D02*
D03*
X105807Y27756D02*
D03*
Y35236D02*
D03*
X193405Y31496D02*
D03*
X184547Y27756D02*
D03*
Y35236D02*
D03*
X86122D02*
D03*
Y27756D02*
D03*
X94980Y31496D02*
D03*
X71555Y174409D02*
D03*
X80413Y178150D02*
D03*
Y170669D02*
D03*
X174705Y62795D02*
D03*
Y55315D02*
D03*
X183563Y59055D02*
D03*
X85138D02*
D03*
X76279Y55315D02*
D03*
Y62795D02*
D03*
X91043Y147047D02*
D03*
Y154527D02*
D03*
X82185Y150787D02*
D03*
X173721Y31496D02*
D03*
X164862Y27756D02*
D03*
Y35236D02*
D03*
X66437D02*
D03*
Y27756D02*
D03*
X75295Y31496D02*
D03*
X92815Y174409D02*
D03*
X101673Y178150D02*
D03*
Y170669D02*
D03*
X155020Y62795D02*
D03*
Y55315D02*
D03*
X163878Y59055D02*
D03*
X66240Y58268D02*
D03*
X57382Y54528D02*
D03*
Y62008D02*
D03*
X111516Y147047D02*
D03*
Y154527D02*
D03*
X102657Y150787D02*
D03*
X154035Y31496D02*
D03*
X145177Y27756D02*
D03*
Y35236D02*
D03*
X46752D02*
D03*
Y27756D02*
D03*
X55610Y31496D02*
D03*
X112894Y174409D02*
D03*
X121752Y178150D02*
D03*
Y170669D02*
D03*
X135335Y62795D02*
D03*
Y55315D02*
D03*
X144193Y59055D02*
D03*
X45768D02*
D03*
X36909Y55315D02*
D03*
Y62795D02*
D03*
X131595Y147047D02*
D03*
Y154527D02*
D03*
X122736Y150787D02*
D03*
X134350Y31496D02*
D03*
X125492Y27756D02*
D03*
Y35236D02*
D03*
X141043Y171063D02*
D03*
Y178543D02*
D03*
X132185Y174803D02*
D03*
X124508Y59055D02*
D03*
X115650Y55315D02*
D03*
Y62795D02*
D03*
X152067Y147047D02*
D03*
Y154527D02*
D03*
X143209Y150787D02*
D03*
D41*
X18504Y147047D02*
D03*
Y156890D02*
D03*
D42*
X190709Y85905D02*
D03*
X180709D02*
D03*
X190709Y95906D02*
D03*
X180709D02*
D03*
X190709Y105905D02*
D03*
D43*
X180709D02*
D03*
D44*
X36602Y15929D02*
D03*
X46445D02*
D03*
X56287D02*
D03*
X75972D02*
D03*
X66130D02*
D03*
X95657D02*
D03*
X85815D02*
D03*
X115342D02*
D03*
X105500D02*
D03*
X135028D02*
D03*
X125185D02*
D03*
X154713D02*
D03*
X144870D02*
D03*
X174398D02*
D03*
X164555D02*
D03*
X184240D02*
D03*
Y196047D02*
D03*
X164555D02*
D03*
X174398D02*
D03*
X144870D02*
D03*
X154713D02*
D03*
X125185D02*
D03*
X135028D02*
D03*
X105500D02*
D03*
X115342D02*
D03*
X85815D02*
D03*
X95657D02*
D03*
X66130D02*
D03*
X75972D02*
D03*
X56287D02*
D03*
X46445D02*
D03*
X36602D02*
D03*
D45*
X153937Y185039D02*
D03*
X160236D02*
D03*
X177953Y185071D02*
D03*
X185039Y184645D02*
D03*
X185827Y189370D02*
D03*
X196457Y157480D02*
D03*
X174409Y190945D02*
D03*
X176378Y157480D02*
D03*
X161268Y165748D02*
D03*
X189370Y142520D02*
D03*
X181890D02*
D03*
X159843Y140551D02*
D03*
X168504Y142520D02*
D03*
X150000Y185433D02*
D03*
X161024Y129921D02*
D03*
X156299D02*
D03*
X175591Y120866D02*
D03*
X169685Y170866D02*
D03*
X150394Y165748D02*
D03*
X77953Y167323D02*
D03*
X70866Y155905D02*
D03*
X57480Y151575D02*
D03*
X66142Y188189D02*
D03*
X57087Y189370D02*
D03*
X49213Y161417D02*
D03*
X80564Y143701D02*
D03*
X32087Y156102D02*
D03*
X35827Y180709D02*
D03*
X33464Y146456D02*
D03*
X76772Y140551D02*
D03*
X63386Y131890D02*
D03*
X95669Y141732D02*
D03*
X40551Y131496D02*
D03*
X93701Y137008D02*
D03*
X47244Y131496D02*
D03*
X66929Y126772D02*
D03*
X53150Y180709D02*
D03*
X109843Y77559D02*
D03*
X103150Y110236D02*
D03*
X65354Y111810D02*
D03*
X78569Y102756D02*
D03*
X93307Y101969D02*
D03*
X112992D02*
D03*
X137402Y117717D02*
D03*
X29921Y116535D02*
D03*
X77559Y98819D02*
D03*
X185512Y90551D02*
D03*
X29921Y144488D02*
D03*
X144488Y54331D02*
D03*
X146063Y40945D02*
D03*
X43701Y51181D02*
D03*
X46850Y40945D02*
D03*
X66535D02*
D03*
X86221Y41339D02*
D03*
X105905Y40945D02*
D03*
X184646Y41339D02*
D03*
X166142Y40945D02*
D03*
X81889Y159842D02*
D03*
X118110Y167717D02*
D03*
X140551Y157087D02*
D03*
X120865Y159842D02*
D03*
X100000Y157874D02*
D03*
X98425Y167717D02*
D03*
X183858Y54724D02*
D03*
X164173Y51968D02*
D03*
X120079Y35433D02*
D03*
X69291Y50787D02*
D03*
X88188Y53543D02*
D03*
X108268Y52362D02*
D03*
X127165Y50787D02*
D03*
X172441Y66535D02*
D03*
X166535Y96063D02*
D03*
X94488Y75590D02*
D03*
X166535Y85827D02*
D03*
X59842Y70472D02*
D03*
X168504Y105905D02*
D03*
X102756Y143307D02*
D03*
X111417Y143701D02*
D03*
X118504Y144095D02*
D03*
X137795Y143307D02*
D03*
Y167028D02*
D03*
X46850Y66142D02*
D03*
X66535D02*
D03*
X80709D02*
D03*
X101969Y66929D02*
D03*
X181102D02*
D03*
X159843Y67323D02*
D03*
X137402Y68110D02*
D03*
X112992Y69685D02*
D03*
M02*
