G04 Layer_Physical_Order=2*
G04 Layer_Color=16711680*
%FSLAX25Y25*%
%MOIN*%
G70*
G01*
G75*
%ADD19C,0.01000*%
%ADD21O,0.09842X0.06890*%
%ADD22C,0.06693*%
%ADD23R,0.06693X0.06693*%
%ADD24C,0.06000*%
%ADD25C,0.02362*%
D19*
X66142Y187008D02*
X66929Y187795D01*
X153937Y185039D02*
X160236D01*
X177953Y185071D02*
X178379Y184645D01*
X185827Y187648D02*
X189764Y183711D01*
Y164173D02*
Y183711D01*
Y164173D02*
X196457Y157480D01*
X174409Y159449D02*
Y190945D01*
Y159449D02*
X176378Y157480D01*
X178379Y184645D02*
X185039D01*
X185827Y187648D02*
Y189370D01*
X152362Y170866D02*
X159449Y163779D01*
X150000Y173228D02*
X152362Y170866D01*
X155362Y171653D02*
X161268Y165748D01*
X152362Y170866D02*
X153150Y171653D01*
X155362D01*
X181890Y142520D02*
X189370D01*
X159843Y140551D02*
X161811Y142520D01*
X159449Y144882D02*
Y163779D01*
Y144882D02*
X161811Y142520D01*
X168504D01*
X169685Y170866D02*
X171185Y169366D01*
Y140083D02*
Y169366D01*
X161024Y129921D02*
X171185Y140083D01*
X150000Y173228D02*
Y185433D01*
X150394Y135827D02*
X156299Y129921D01*
X175591Y120472D02*
Y120866D01*
X150394Y135827D02*
Y165748D01*
X77953Y167323D02*
X79134Y166142D01*
X66142Y160630D02*
X70866Y155905D01*
X66142Y160630D02*
Y187008D01*
X56661Y148457D02*
X71695D01*
X41732Y146457D02*
X70866D01*
X66535Y188189D02*
X66929Y187795D01*
X57480Y151575D02*
Y188976D01*
X57087Y189370D02*
X57480Y188976D01*
X66142Y188189D02*
X66535D01*
X49213Y155905D02*
Y161417D01*
Y155905D02*
X56661Y148457D01*
X71695D02*
X76451Y143701D01*
X80564D01*
X32087Y156102D02*
X41732Y146457D01*
X29406Y175469D02*
X34646Y180709D01*
X29406Y145004D02*
Y175469D01*
Y145004D02*
X29921Y144488D01*
X34646Y180709D02*
X35827D01*
X53150D01*
X33464Y140551D02*
Y146456D01*
X29921Y137008D02*
X33464Y140551D01*
X70866Y146457D02*
X76772Y140551D01*
X86221Y133465D02*
X94488Y141732D01*
X64961Y133465D02*
X86221D01*
X64740Y129453D02*
X86146D01*
X64496Y129209D02*
X64740Y129453D01*
X62275Y129209D02*
X64496D01*
X62031Y129453D02*
X62275Y129209D01*
X53079Y129453D02*
X62031D01*
X48355Y134177D02*
X53079Y129453D01*
X86146D02*
X93701Y137008D01*
X63386Y131890D02*
X64961Y133465D01*
X94488Y141732D02*
X95669D01*
X46134Y134177D02*
X48355D01*
X44634Y132677D02*
X46134Y134177D01*
X41732Y132677D02*
X44634D01*
X40551Y131496D02*
X41732Y132677D01*
X43307Y127559D02*
X47244Y131496D01*
X29921Y127559D02*
X43307D01*
X66929Y114395D02*
X78569Y102756D01*
X66929Y114395D02*
Y126772D01*
X29921Y127559D02*
Y137008D01*
Y116535D02*
Y127559D01*
X184646Y41090D02*
X193626Y50071D01*
X115747Y16335D02*
X115748Y16335D01*
X56276Y15524D02*
X69291Y28539D01*
X99976Y157874D02*
X105500Y163398D01*
X66437Y66043D02*
X66535Y65945D01*
X120276Y35433D02*
Y62402D01*
X46752Y66043D02*
X46850Y65945D01*
X168504Y105905D02*
X169217Y105193D01*
X155587Y74878D02*
X166535Y85827D01*
X94488Y75590D02*
X95201Y74878D01*
X148031Y77559D02*
X166535Y96063D01*
X95201Y74878D02*
X155587D01*
X157378Y72878D02*
X169217Y84716D01*
X93409Y72878D02*
X157378D01*
X169217Y84716D02*
Y105193D01*
X93059Y73228D02*
X93409Y72878D01*
X62205Y73228D02*
X93059D01*
X109843Y77559D02*
X148031D01*
X108661Y101969D02*
X112992D01*
X93307D02*
X108661D01*
Y104724D01*
X103150Y110236D02*
X108661Y104724D01*
X172835Y117717D02*
X175591Y120472D01*
X65354Y111024D02*
Y111810D01*
Y111024D02*
X77559Y98819D01*
X137402Y117717D02*
X172835D01*
X185512Y90551D02*
X185555Y90508D01*
X174386Y48819D02*
X174398D01*
Y15929D02*
Y48819D01*
X159055Y51968D02*
X164173D01*
X154701Y47614D02*
X159055Y51968D01*
X154701Y16311D02*
Y47614D01*
X145990Y52041D02*
X146063Y51968D01*
Y40945D02*
Y51968D01*
X135016Y48819D02*
X135028D01*
Y15929D02*
Y48819D01*
X145990Y52041D02*
X147169Y53220D01*
X140528Y54331D02*
X144488D01*
X135016Y48819D02*
X140528Y54331D01*
X36602Y15929D02*
X43701Y23028D01*
Y51181D01*
X46850Y40945D02*
Y65945D01*
X66535Y40945D02*
Y65945D01*
X86221Y41339D02*
Y47587D01*
X86122Y47685D02*
X86221Y47587D01*
X105905Y40945D02*
Y46011D01*
X105807Y46110D02*
X105905Y46011D01*
X105807Y46110D02*
X110949Y51252D01*
X184646Y41090D02*
Y41339D01*
X166854Y48299D02*
Y60311D01*
X166142Y47586D02*
X166854Y48299D01*
X166142Y40945D02*
Y47586D01*
X81889Y159842D02*
X85815Y163768D01*
X79134Y157480D02*
Y166142D01*
Y157480D02*
X81496Y155118D01*
X89563D01*
X85815Y163768D02*
Y196047D01*
X118110Y144488D02*
Y167717D01*
X140551Y157087D02*
Y159866D01*
X144870Y164185D01*
Y196047D01*
X120865Y159842D02*
X124802D01*
X125185Y160224D01*
Y196047D01*
X118110Y144488D02*
X118504Y144095D01*
X99976Y157874D02*
X100000D01*
X95739Y154798D02*
X100320D01*
X94169Y158590D02*
X98425Y162847D01*
Y167717D01*
X100320Y154798D02*
X111417Y143701D01*
X94169Y156369D02*
X95739Y154798D01*
X94169Y156369D02*
Y158590D01*
X105500Y163398D02*
Y196047D01*
X89563Y155118D02*
X101374Y143307D01*
X102756D01*
X180291Y54724D02*
X183858D01*
X159843Y67323D02*
X166854Y60311D01*
X100394Y52362D02*
X108268D01*
X95657Y47626D02*
X100394Y52362D01*
X95657Y15929D02*
Y47626D01*
X75972Y15929D02*
Y44870D01*
X84645Y53543D01*
X88188D01*
X69291Y28539D02*
Y50787D01*
X174386Y48819D02*
X180291Y54724D01*
X181102Y66929D02*
X193626Y54405D01*
Y50071D02*
Y54405D01*
X80709Y66142D02*
X90869Y55981D01*
Y52432D02*
Y55981D01*
X86122Y47685D02*
X90869Y52432D01*
X101969Y66929D02*
X110949Y57949D01*
Y51252D02*
Y57949D01*
X127165Y27753D02*
Y50787D01*
X115747Y16335D02*
X127165Y27753D01*
X112992Y69685D02*
X120276Y62402D01*
X137402Y68110D02*
X147169Y58342D01*
Y53220D02*
Y58342D01*
X115342Y15929D02*
X115748Y16335D01*
X172441Y66535D02*
X185555Y79650D01*
Y90508D01*
X59842Y70472D02*
Y70866D01*
X62205Y73228D01*
X137795Y143307D02*
Y167028D01*
X46752Y66043D02*
X46850Y66142D01*
X66437Y66043D02*
X66535Y66142D01*
D21*
X18504Y147047D02*
D03*
Y156890D02*
D03*
D22*
X190709Y85905D02*
D03*
X180709D02*
D03*
X190709Y95906D02*
D03*
X180709D02*
D03*
X190709Y105905D02*
D03*
D23*
X180709D02*
D03*
D24*
X36602Y15929D02*
D03*
X46445D02*
D03*
X56287D02*
D03*
X75972D02*
D03*
X66130D02*
D03*
X95657D02*
D03*
X85815D02*
D03*
X115342D02*
D03*
X105500D02*
D03*
X135028D02*
D03*
X125185D02*
D03*
X154713D02*
D03*
X144870D02*
D03*
X174398D02*
D03*
X164555D02*
D03*
X184240D02*
D03*
Y196047D02*
D03*
X164555D02*
D03*
X174398D02*
D03*
X144870D02*
D03*
X154713D02*
D03*
X125185D02*
D03*
X135028D02*
D03*
X105500D02*
D03*
X115342D02*
D03*
X85815D02*
D03*
X95657D02*
D03*
X66130D02*
D03*
X75972D02*
D03*
X56287D02*
D03*
X46445D02*
D03*
X36602D02*
D03*
D25*
X153937Y185039D02*
D03*
X160236D02*
D03*
X177953Y185071D02*
D03*
X185039Y184645D02*
D03*
X185827Y189370D02*
D03*
X196457Y157480D02*
D03*
X174409Y190945D02*
D03*
X176378Y157480D02*
D03*
X161268Y165748D02*
D03*
X189370Y142520D02*
D03*
X181890D02*
D03*
X159843Y140551D02*
D03*
X168504Y142520D02*
D03*
X150000Y185433D02*
D03*
X161024Y129921D02*
D03*
X156299D02*
D03*
X175591Y120866D02*
D03*
X169685Y170866D02*
D03*
X150394Y165748D02*
D03*
X77953Y167323D02*
D03*
X70866Y155905D02*
D03*
X57480Y151575D02*
D03*
X66142Y188189D02*
D03*
X57087Y189370D02*
D03*
X49213Y161417D02*
D03*
X80564Y143701D02*
D03*
X32087Y156102D02*
D03*
X35827Y180709D02*
D03*
X33464Y146456D02*
D03*
X76772Y140551D02*
D03*
X63386Y131890D02*
D03*
X95669Y141732D02*
D03*
X40551Y131496D02*
D03*
X93701Y137008D02*
D03*
X47244Y131496D02*
D03*
X66929Y126772D02*
D03*
X53150Y180709D02*
D03*
X109843Y77559D02*
D03*
X103150Y110236D02*
D03*
X65354Y111810D02*
D03*
X78569Y102756D02*
D03*
X93307Y101969D02*
D03*
X112992D02*
D03*
X137402Y117717D02*
D03*
X29921Y116535D02*
D03*
X77559Y98819D02*
D03*
X185512Y90551D02*
D03*
X29921Y144488D02*
D03*
X144488Y54331D02*
D03*
X146063Y40945D02*
D03*
X43701Y51181D02*
D03*
X46850Y40945D02*
D03*
X66535D02*
D03*
X86221Y41339D02*
D03*
X105905Y40945D02*
D03*
X184646Y41339D02*
D03*
X166142Y40945D02*
D03*
X81889Y159842D02*
D03*
X118110Y167717D02*
D03*
X140551Y157087D02*
D03*
X120865Y159842D02*
D03*
X100000Y157874D02*
D03*
X98425Y167717D02*
D03*
X183858Y54724D02*
D03*
X164173Y51968D02*
D03*
X120079Y35433D02*
D03*
X69291Y50787D02*
D03*
X88188Y53543D02*
D03*
X108268Y52362D02*
D03*
X127165Y50787D02*
D03*
X172441Y66535D02*
D03*
X166535Y96063D02*
D03*
X94488Y75590D02*
D03*
X166535Y85827D02*
D03*
X59842Y70472D02*
D03*
X168504Y105905D02*
D03*
X102756Y143307D02*
D03*
X111417Y143701D02*
D03*
X118504Y144095D02*
D03*
X137795Y143307D02*
D03*
Y167028D02*
D03*
X46850Y66142D02*
D03*
X66535D02*
D03*
X80709D02*
D03*
X101969Y66929D02*
D03*
X181102D02*
D03*
X159843Y67323D02*
D03*
X137402Y68110D02*
D03*
X112992Y69685D02*
D03*
M02*
