G04 Layer_Color=16711935*
%FSLAX25Y25*%
%MOIN*%
G70*
G01*
G75*
%ADD30C,0.00787*%
%ADD31C,0.00600*%
%ADD46C,0.00394*%
%ADD47C,0.00800*%
G36*
X190354Y145673D02*
X188255D01*
Y149016D01*
X190354D01*
Y145673D01*
D02*
G37*
G36*
X166535Y145717D02*
X163975D01*
Y149016D01*
X166535D01*
Y145717D01*
D02*
G37*
G36*
X186614D02*
X184054D01*
Y149016D01*
X186614D01*
Y145717D01*
D02*
G37*
G36*
X174016Y145662D02*
X172418D01*
Y149016D01*
X174016D01*
Y145662D01*
D02*
G37*
G36*
X194095D02*
X192497D01*
Y149016D01*
X194095D01*
Y145662D01*
D02*
G37*
G36*
X170276Y145673D02*
X168176D01*
Y149016D01*
X170276D01*
Y145673D01*
D02*
G37*
G36*
X186614Y156153D02*
X184018D01*
Y158268D01*
X186614D01*
Y156153D01*
D02*
G37*
G36*
X174016Y156158D02*
X172417D01*
Y158268D01*
X174016D01*
Y156158D01*
D02*
G37*
G36*
X194095D02*
X192496D01*
Y158268D01*
X194095D01*
Y156158D01*
D02*
G37*
G36*
X170276Y156100D02*
X168192D01*
Y158268D01*
X170276D01*
Y156100D01*
D02*
G37*
G36*
X190354D02*
X188271D01*
Y158268D01*
X190354D01*
Y156100D01*
D02*
G37*
G36*
X166535Y156153D02*
X163939D01*
Y158268D01*
X166535D01*
Y156153D01*
D02*
G37*
G36*
X68307Y135043D02*
X66208D01*
Y138386D01*
X68307D01*
Y135043D01*
D02*
G37*
G36*
X44882Y135087D02*
X42321D01*
Y138386D01*
X44882D01*
Y135087D01*
D02*
G37*
G36*
X64567D02*
X62006D01*
Y138386D01*
X64567D01*
Y135087D01*
D02*
G37*
G36*
X52362Y135032D02*
X50765D01*
Y138386D01*
X52362D01*
Y135032D01*
D02*
G37*
G36*
X72047D02*
X70450D01*
Y138386D01*
X72047D01*
Y135032D01*
D02*
G37*
G36*
X48622Y135043D02*
X46523D01*
Y138386D01*
X48622D01*
Y135043D01*
D02*
G37*
G36*
X64567Y145523D02*
X61971D01*
Y147638D01*
X64567D01*
Y145523D01*
D02*
G37*
G36*
X52362Y145528D02*
X50764D01*
Y147638D01*
X52362D01*
Y145528D01*
D02*
G37*
G36*
X72047D02*
X70449D01*
Y147638D01*
X72047D01*
Y145528D01*
D02*
G37*
G36*
X48622Y145470D02*
X46538D01*
Y147638D01*
X48622D01*
Y145470D01*
D02*
G37*
G36*
X68307D02*
X66224D01*
Y147638D01*
X68307D01*
Y145470D01*
D02*
G37*
G36*
X44882Y145523D02*
X42286D01*
Y147638D01*
X44882D01*
Y145523D01*
D02*
G37*
G36*
X50394Y175051D02*
X47797D01*
Y177165D01*
X50394D01*
Y175051D01*
D02*
G37*
G36*
X40551Y175056D02*
X38953D01*
Y177165D01*
X40551D01*
Y175056D01*
D02*
G37*
G36*
X57874D02*
X56276D01*
Y177165D01*
X57874D01*
Y175056D01*
D02*
G37*
G36*
X36811Y174997D02*
X34727D01*
Y177165D01*
X36811D01*
Y174997D01*
D02*
G37*
G36*
X54134D02*
X52050D01*
Y177165D01*
X54134D01*
Y174997D01*
D02*
G37*
G36*
X33071Y175051D02*
X30474D01*
Y177165D01*
X33071D01*
Y175051D01*
D02*
G37*
G36*
X175197Y179382D02*
X172600D01*
Y181496D01*
X175197D01*
Y179382D01*
D02*
G37*
G36*
X158661Y179386D02*
X157063D01*
Y181496D01*
X158661D01*
Y179386D01*
D02*
G37*
G36*
X182677D02*
X181079D01*
Y181496D01*
X182677D01*
Y179386D01*
D02*
G37*
G36*
X154921Y179328D02*
X152838D01*
Y181496D01*
X154921D01*
Y179328D01*
D02*
G37*
G36*
X178937D02*
X176854D01*
Y181496D01*
X178937D01*
Y179328D01*
D02*
G37*
G36*
X151181Y179382D02*
X148585D01*
Y181496D01*
X151181D01*
Y179382D01*
D02*
G37*
G36*
X54134Y164571D02*
X52035D01*
Y167913D01*
X54134D01*
Y164571D01*
D02*
G37*
G36*
X33071Y164614D02*
X30510D01*
Y167913D01*
X33071D01*
Y164614D01*
D02*
G37*
G36*
X50394D02*
X47833D01*
Y167913D01*
X50394D01*
Y164614D01*
D02*
G37*
G36*
X40551Y164559D02*
X38954D01*
Y167913D01*
X40551D01*
Y164559D01*
D02*
G37*
G36*
X57874D02*
X56277D01*
Y167913D01*
X57874D01*
Y164559D01*
D02*
G37*
G36*
X36811Y164571D02*
X34712D01*
Y167913D01*
X36811D01*
Y164571D01*
D02*
G37*
G36*
X178937Y168902D02*
X176838D01*
Y172244D01*
X178937D01*
Y168902D01*
D02*
G37*
G36*
X151181Y168945D02*
X148620D01*
Y172244D01*
X151181D01*
Y168945D01*
D02*
G37*
G36*
X175197D02*
X172636D01*
Y172244D01*
X175197D01*
Y168945D01*
D02*
G37*
G36*
X158661Y168890D02*
X157064D01*
Y172244D01*
X158661D01*
Y168890D01*
D02*
G37*
G36*
X182677D02*
X181080D01*
Y172244D01*
X182677D01*
Y168890D01*
D02*
G37*
G36*
X154921Y168902D02*
X152822D01*
Y172244D01*
X154921D01*
Y168902D01*
D02*
G37*
D30*
X27854Y137401D02*
Y166536D01*
X5216Y137401D02*
X27854D01*
X5216D02*
Y166536D01*
X27854D01*
D31*
X24983Y118030D02*
Y121430D01*
X17884D02*
X24983D01*
X17884Y118030D02*
Y121430D01*
Y118030D02*
X24983D01*
Y108930D02*
Y112330D01*
X17884D02*
X24983D01*
X17884Y108930D02*
Y112330D01*
Y108930D02*
X24983D01*
Y99830D02*
Y103230D01*
X17884D02*
X24983D01*
X17884Y99830D02*
Y103230D01*
Y99830D02*
X24983D01*
X39584Y104430D02*
Y116830D01*
Y104430D02*
X46683D01*
Y116930D01*
X39584Y116830D02*
X46683Y116930D01*
X24983Y97430D02*
X39584D01*
Y123830D01*
X24983D02*
X39584D01*
X24983Y97430D02*
Y123830D01*
D46*
X0Y213386D02*
X220866D01*
Y0D02*
Y213386D01*
X0Y0D02*
X220866D01*
X0D02*
Y213386D01*
D47*
X148142Y172402D02*
X159732D01*
X148142Y178779D02*
X159732D01*
X172158Y172402D02*
X183748D01*
X172158Y178779D02*
X183748D01*
X61528Y138543D02*
X73118D01*
X61528Y144921D02*
X73118D01*
X30031Y168071D02*
X41622D01*
X30031Y174449D02*
X41622D01*
X47354Y168071D02*
X58945D01*
X47354Y174449D02*
X58945D01*
X41842Y138543D02*
X53433D01*
X41842Y144921D02*
X53433D01*
X163496Y149173D02*
X175087D01*
X163496Y155551D02*
X175087D01*
X183575Y149173D02*
X195165D01*
X183575Y155551D02*
X195165D01*
M02*
