M48
;Layer_Color=9474304
;FILE_FORMAT=2:5
INCH,TZ
;TYPE=PLATED
T1F00S00C0.01181
T2F00S00C0.03000
T3F00S00C0.03543
T4F00S00C0.03937
%
T01
X105905Y40945
X108268Y52362
X127165Y50787
X144488Y54331
X146063Y40945
X166142
X164173Y51968
X159843Y67323
X172441Y66535
X181102Y66929
X183858Y54724
X184646Y41339
X185512Y90551
X166535Y85827
Y96063
X168504Y105905
X175591Y120866
X161024Y129921
X156299
X137402Y117717
X112992Y101969
X103150Y110236
X109843Y77559
X112992Y69685
X101969Y66929
X137402Y68110
X120079Y35433
X86221Y41339
X88188Y53543
X80709Y66142
X66535
X59842Y70472
X46850Y66142
X43701Y51181
X46850Y40945
X66535
X69291Y50787
X94488Y75590
X93307Y101969
X78569Y102756
X77559Y98819
X65354Y111810
X66929Y126772
X29921Y116535
X40551Y131496
X47244
X63386Y131890
X76772Y140551
X80564Y143701
X95669Y141732
X93701Y137008
X81889Y159842
X77953Y167323
X70866Y155905
X57480Y151575
X49213Y161417
X32087Y156102
X33464Y146456
X29921Y144488
X35827Y180709
X53150
X57087Y189370
X66142Y188189
X98425Y167717
X100000Y157874
X102756Y143307
X111417Y143701
X118504Y144095
X120865Y159842
X118110Y167717
X137795Y167028
X140551Y157087
X137795Y143307
X159843Y140551
X168504Y142520
X181890
X189370
X196457Y157480
X176378
X169685Y170866
X161268Y165748
X150394
X150000Y185433
X153937Y185039
X160236
X177953Y185071
X185039Y184645
X185827Y189370
X174409Y190945
T02
X105500Y15929
X115342
X125185
X135028
X144870
X154713
X164555
X174398
X184240
X95657
X85815
X75972
X66130
X56287
X46445
X36602
Y196047
X46445
X56287
X66130
X75972
X85815
X95657
X105500
X115342
X125185
X135028
X144870
X154713
X164555
X174398
X184240
T03
X180709Y85905
X190709
Y95906
X180709
Y105905
X190709
T04
X18504Y147047
Y156890
M30
