G04 Layer_Color=32896*
%FSLAX25Y25*%
%MOIN*%
G70*
G01*
G75*
%ADD19C,0.01000*%
D19*
X198873Y204843D02*
X198301Y205415D01*
X198016Y206272D01*
Y207414D01*
X198301Y208271D01*
X198873Y208842D01*
X199444D01*
X200015Y208557D01*
X200301Y208271D01*
X200587Y207700D01*
X201158Y205986D01*
X201444Y205415D01*
X201729Y205129D01*
X202301Y204843D01*
X203157D01*
X203729Y205415D01*
X204014Y206272D01*
Y207414D01*
X203729Y208271D01*
X203157Y208842D01*
X198016Y203501D02*
X204014D01*
X201729Y202244D02*
Y198816D01*
X201158D01*
X200587Y199102D01*
X200301Y199387D01*
X200015Y199959D01*
Y200816D01*
X200301Y201387D01*
X200872Y201958D01*
X201729Y202244D01*
X202301D01*
X203157Y201958D01*
X203729Y201387D01*
X204014Y200816D01*
Y199959D01*
X203729Y199387D01*
X203157Y198816D01*
X201729Y197531D02*
Y194103D01*
X201158D01*
X200587Y194388D01*
X200301Y194674D01*
X200015Y195245D01*
Y196102D01*
X200301Y196674D01*
X200872Y197245D01*
X201729Y197531D01*
X202301D01*
X203157Y197245D01*
X203729Y196674D01*
X204014Y196102D01*
Y195245D01*
X203729Y194674D01*
X203157Y194103D01*
X198016Y192817D02*
X204014D01*
X200015Y189961D02*
X202872Y192817D01*
X201729Y191675D02*
X204014Y189675D01*
X198016Y184019D02*
X204014D01*
X200015Y182762D02*
X204014D01*
X201158D02*
X200301Y181905D01*
X200015Y181334D01*
Y180477D01*
X200301Y179906D01*
X201158Y179620D01*
X204014D01*
X201158D02*
X200301Y178763D01*
X200015Y178192D01*
Y177335D01*
X200301Y176764D01*
X201158Y176478D01*
X204014D01*
X200015Y174593D02*
X206014D01*
X200872D02*
X200301Y174021D01*
X200015Y173450D01*
Y172593D01*
X200301Y172022D01*
X200872Y171450D01*
X201729Y171165D01*
X202301D01*
X203157Y171450D01*
X203729Y172022D01*
X204014Y172593D01*
Y173450D01*
X203729Y174021D01*
X203157Y174593D01*
X200015Y168451D02*
X200301Y169023D01*
X200872Y169594D01*
X201729Y169879D01*
X202301D01*
X203157Y169594D01*
X203729Y169023D01*
X204014Y168451D01*
Y167594D01*
X203729Y167023D01*
X203157Y166452D01*
X202301Y166166D01*
X201729D01*
X200872Y166452D01*
X200301Y167023D01*
X200015Y167594D01*
Y168451D01*
Y164852D02*
X204014D01*
X201158D02*
X200301Y163995D01*
X200015Y163424D01*
Y162567D01*
X200301Y161995D01*
X201158Y161710D01*
X204014D01*
X200015Y156711D02*
X204014D01*
X200872D02*
X200301Y157282D01*
X200015Y157853D01*
Y158710D01*
X200301Y159282D01*
X200872Y159853D01*
X201729Y160139D01*
X202301D01*
X203157Y159853D01*
X203729Y159282D01*
X204014Y158710D01*
Y157853D01*
X203729Y157282D01*
X203157Y156711D01*
X198016Y154254D02*
X202872D01*
X203729Y153969D01*
X204014Y153397D01*
Y152826D01*
X200015Y155111D02*
Y153112D01*
Y150541D02*
X200301Y151112D01*
X200872Y151683D01*
X201729Y151969D01*
X202301D01*
X203157Y151683D01*
X203729Y151112D01*
X204014Y150541D01*
Y149684D01*
X203729Y149112D01*
X203157Y148541D01*
X202301Y148256D01*
X201729D01*
X200872Y148541D01*
X200301Y149112D01*
X200015Y149684D01*
Y150541D01*
Y146941D02*
X204014D01*
X201729D02*
X200872Y146656D01*
X200301Y146084D01*
X200015Y145513D01*
Y144656D01*
X198016Y139400D02*
X204014D01*
X198016D02*
Y136829D01*
X198301Y135972D01*
X198587Y135687D01*
X199158Y135401D01*
X199730D01*
X200301Y135687D01*
X200587Y135972D01*
X200872Y136829D01*
Y139400D01*
Y137401D02*
X204014Y135401D01*
X201729Y134058D02*
Y130631D01*
X201158D01*
X200587Y130916D01*
X200301Y131202D01*
X200015Y131773D01*
Y132630D01*
X200301Y133202D01*
X200872Y133773D01*
X201729Y134058D01*
X202301D01*
X203157Y133773D01*
X203729Y133202D01*
X204014Y132630D01*
Y131773D01*
X203729Y131202D01*
X203157Y130631D01*
X200015Y129345D02*
X204014Y127631D01*
X200015Y125917D02*
X204014Y127631D01*
X199158Y120233D02*
X198873Y119662D01*
X198016Y118805D01*
X204014D01*
X203443Y115548D02*
X203729Y115834D01*
X204014Y115548D01*
X203729Y115263D01*
X203443Y115548D01*
X198016Y112235D02*
X198301Y113092D01*
X199158Y113663D01*
X200587Y113949D01*
X201444D01*
X202872Y113663D01*
X203729Y113092D01*
X204014Y112235D01*
Y111663D01*
X203729Y110806D01*
X202872Y110235D01*
X201444Y109949D01*
X200587D01*
X199158Y110235D01*
X198301Y110806D01*
X198016Y111663D01*
Y112235D01*
X209899Y207129D02*
X210185Y207700D01*
X210756Y208271D01*
X211328Y208557D01*
X212185Y208842D01*
X213613D01*
X214470Y208557D01*
X215041Y208271D01*
X215612Y207700D01*
X215898Y207129D01*
Y205986D01*
X215612Y205415D01*
X215041Y204843D01*
X214470Y204558D01*
X213613Y204272D01*
X212185D01*
X211328Y204558D01*
X210756Y204843D01*
X210185Y205415D01*
X209899Y205986D01*
Y207129D01*
Y202872D02*
X215898D01*
X213613Y201616D02*
Y198188D01*
X213041D01*
X212470Y198473D01*
X212185Y198759D01*
X211899Y199330D01*
Y200187D01*
X212185Y200759D01*
X212756Y201330D01*
X213613Y201616D01*
X214184D01*
X215041Y201330D01*
X215612Y200759D01*
X215898Y200187D01*
Y199330D01*
X215612Y198759D01*
X215041Y198188D01*
X210756Y188190D02*
X210185Y188761D01*
X209899Y189618D01*
Y190761D01*
X210185Y191618D01*
X210756Y192189D01*
X211328D01*
X211899Y191903D01*
X212185Y191618D01*
X212470Y191046D01*
X213041Y189332D01*
X213327Y188761D01*
X213613Y188476D01*
X214184Y188190D01*
X215041D01*
X215612Y188761D01*
X215898Y189618D01*
Y190761D01*
X215612Y191618D01*
X215041Y192189D01*
X209899Y186276D02*
X210185Y185990D01*
X209899Y185705D01*
X209614Y185990D01*
X209899Y186276D01*
X211899Y185990D02*
X215898D01*
X211899Y184648D02*
X215898Y182934D01*
X211899Y181220D02*
X215898Y182934D01*
X213613Y180249D02*
Y176821D01*
X213041D01*
X212470Y177106D01*
X212185Y177392D01*
X211899Y177963D01*
Y178820D01*
X212185Y179392D01*
X212756Y179963D01*
X213613Y180249D01*
X214184D01*
X215041Y179963D01*
X215612Y179392D01*
X215898Y178820D01*
Y177963D01*
X215612Y177392D01*
X215041Y176821D01*
X211899Y175535D02*
X215898D01*
X213613D02*
X212756Y175250D01*
X212185Y174678D01*
X211899Y174107D01*
Y173250D01*
X209899Y171850D02*
X214756D01*
X215612Y171565D01*
X215898Y170993D01*
Y170422D01*
X211899Y172707D02*
Y170708D01*
X215898Y160282D02*
X209899Y162567D01*
X215898Y164852D01*
X213898Y163995D02*
Y161138D01*
X211899Y155454D02*
X215898D01*
X212756D02*
X212185Y156025D01*
X211899Y156597D01*
Y157454D01*
X212185Y158025D01*
X212756Y158596D01*
X213613Y158882D01*
X214184D01*
X215041Y158596D01*
X215612Y158025D01*
X215898Y157454D01*
Y156597D01*
X215612Y156025D01*
X215041Y155454D01*
X211899Y153854D02*
X215898D01*
X213613D02*
X212756Y153569D01*
X212185Y152997D01*
X211899Y152426D01*
Y151569D01*
X209899Y151026D02*
X215898D01*
X213041D02*
X212185Y150169D01*
X211899Y149598D01*
Y148741D01*
X212185Y148170D01*
X213041Y147884D01*
X215898D01*
X211899Y142885D02*
X215898D01*
X212756D02*
X212185Y143456D01*
X211899Y144028D01*
Y144885D01*
X212185Y145456D01*
X212756Y146027D01*
X213613Y146313D01*
X214184D01*
X215041Y146027D01*
X215612Y145456D01*
X215898Y144885D01*
Y144028D01*
X215612Y143456D01*
X215041Y142885D01*
X211899Y141286D02*
X214756D01*
X215612Y141000D01*
X215898Y140429D01*
Y139572D01*
X215612Y139000D01*
X214756Y138143D01*
X211899D02*
X215898D01*
X211899Y133144D02*
X216469D01*
X217326Y133430D01*
X217612Y133716D01*
X217898Y134287D01*
Y135144D01*
X217612Y135715D01*
X212756Y133144D02*
X212185Y133716D01*
X211899Y134287D01*
Y135144D01*
X212185Y135715D01*
X212756Y136287D01*
X213613Y136572D01*
X214184D01*
X215041Y136287D01*
X215612Y135715D01*
X215898Y135144D01*
Y134287D01*
X215612Y133716D01*
X215041Y133144D01*
M02*
