G04 Layer_Color=32768*
%FSLAX25Y25*%
%MOIN*%
G70*
G01*
G75*
%ADD30C,0.00787*%
%ADD46C,0.00394*%
%ADD48C,0.00197*%
D30*
X18504Y150000D02*
Y153937D01*
X16535Y151969D02*
X20472D01*
X3150Y168504D02*
X29921D01*
Y135433D02*
Y168504D01*
X3150Y135433D02*
X29921D01*
X3150D02*
Y168504D01*
D46*
X188583Y171358D02*
Y175098D01*
X186713Y173228D02*
X190453D01*
X164173Y171358D02*
Y175098D01*
X162303Y173228D02*
X166043D01*
X183858Y122146D02*
Y125886D01*
X181988Y124016D02*
X185728D01*
X179527Y148130D02*
Y151870D01*
X177657Y150000D02*
X181398D01*
X159449Y148130D02*
Y151870D01*
X157579Y150000D02*
X161319D01*
X57480Y137894D02*
Y141634D01*
X55610Y139764D02*
X59350D01*
X46949Y124016D02*
X50689D01*
X48819Y122146D02*
Y125886D01*
X37795Y137500D02*
Y141240D01*
X35925Y139370D02*
X39665D01*
X24803Y171752D02*
Y175492D01*
X22933Y173622D02*
X26673D01*
X63386Y167028D02*
Y170768D01*
X61516Y168898D02*
X65256D01*
X106299Y106299D02*
Y110236D01*
X104331Y108268D02*
X108268D01*
X79724Y134843D02*
X132874D01*
X79724Y81693D02*
X132874D01*
X79724D02*
Y134843D01*
X132874Y81693D02*
Y134843D01*
X98425Y59055D02*
X102362D01*
X100394Y57087D02*
Y61024D01*
X20866Y85138D02*
Y88878D01*
X18996Y87008D02*
X22736D01*
X65453Y118898D02*
X69193D01*
X67323Y117028D02*
Y120768D01*
X35827Y76083D02*
Y79823D01*
X33957Y77953D02*
X37697D01*
X110236Y29528D02*
Y33465D01*
X108268Y31496D02*
X112205D01*
X188976Y29528D02*
Y33465D01*
X187008Y31496D02*
X190945D01*
X88583D02*
X92520D01*
X90551Y29528D02*
Y33465D01*
X75984Y172441D02*
Y176378D01*
X74016Y174409D02*
X77953D01*
X177165Y59055D02*
X181102D01*
X179134Y57087D02*
Y61024D01*
X80709Y57087D02*
Y61024D01*
X78740Y59055D02*
X82677D01*
X84646Y150787D02*
X88583D01*
X86614Y148819D02*
Y152756D01*
X169291Y29528D02*
Y33465D01*
X167323Y31496D02*
X171260D01*
X68898D02*
X72835D01*
X70866Y29528D02*
Y33465D01*
X97244Y172441D02*
Y176378D01*
X95276Y174409D02*
X99213D01*
X157480Y59055D02*
X161417D01*
X159449Y57087D02*
Y61024D01*
X61811Y56299D02*
Y60236D01*
X59842Y58268D02*
X63779D01*
X105118Y150787D02*
X109055D01*
X107087Y148819D02*
Y152756D01*
X149606Y29528D02*
Y33465D01*
X147638Y31496D02*
X151575D01*
X49213D02*
X53150D01*
X51181Y29528D02*
Y33465D01*
X117323Y172441D02*
Y176378D01*
X115354Y174409D02*
X119291D01*
X137795Y59055D02*
X141732D01*
X139764Y57087D02*
Y61024D01*
X41339Y57087D02*
Y61024D01*
X39370Y59055D02*
X43307D01*
X125197Y150787D02*
X129134D01*
X127165Y148819D02*
Y152756D01*
X129921Y29528D02*
Y33465D01*
X127953Y31496D02*
X131890D01*
X134646Y174803D02*
X138583D01*
X136614Y172835D02*
Y176772D01*
X120079Y57087D02*
Y61024D01*
X118110Y59055D02*
X122047D01*
X145669Y150787D02*
X149606D01*
X147638Y148819D02*
Y152756D01*
D48*
X185630Y167913D02*
X191535D01*
X185630Y178543D02*
X191535D01*
X185630Y167913D02*
Y178543D01*
X191535Y167913D02*
Y178543D01*
X161221Y167913D02*
X167126D01*
X161221Y178543D02*
X167126D01*
X161221Y167913D02*
Y178543D01*
X167126Y167913D02*
Y178543D01*
X178543Y121063D02*
X189173D01*
X178543Y126969D02*
X189173D01*
Y121063D02*
Y126969D01*
X178543Y121063D02*
Y126969D01*
X176575Y144685D02*
X182480D01*
X176575Y155315D02*
X182480D01*
X176575Y144685D02*
Y155315D01*
X182480Y144685D02*
Y155315D01*
X156496Y144685D02*
X162402D01*
X156496Y155315D02*
X162402D01*
X156496Y144685D02*
Y155315D01*
X162402Y144685D02*
Y155315D01*
X54527Y134449D02*
X60433D01*
X54527Y145079D02*
X60433D01*
X54527Y134449D02*
Y145079D01*
X60433Y134449D02*
Y145079D01*
X51772Y118701D02*
Y129331D01*
X45866Y118701D02*
Y129331D01*
X51772D01*
X45866Y118701D02*
X51772D01*
X34843Y134055D02*
X40748D01*
X34843Y144685D02*
X40748D01*
X34843Y134055D02*
Y144685D01*
X40748Y134055D02*
Y144685D01*
X21850Y168307D02*
X27756D01*
X21850Y178937D02*
X27756D01*
X21850Y168307D02*
Y178937D01*
X27756Y168307D02*
Y178937D01*
X60433Y163583D02*
X66339D01*
X60433Y174213D02*
X66339D01*
X60433Y163583D02*
Y174213D01*
X66339Y163583D02*
Y174213D01*
X84350Y162205D02*
X88090D01*
X86221Y160335D02*
Y164075D01*
X89173Y156299D02*
Y168110D01*
X83268Y156299D02*
Y168110D01*
X89173D01*
X83268Y156299D02*
X89173D01*
X68209Y164567D02*
X71949D01*
X70079Y162697D02*
Y166437D01*
X67126Y158661D02*
Y170472D01*
X73032Y158661D02*
Y170472D01*
X67126Y158661D02*
X73032D01*
X67126Y170472D02*
X73032D01*
X56398Y116535D02*
X60138D01*
X58268Y114665D02*
Y118405D01*
X55315Y110630D02*
Y122441D01*
X61221Y110630D02*
Y122441D01*
X55315Y110630D02*
X61221D01*
X55315Y122441D02*
X61221D01*
X176476Y47638D02*
X180217D01*
X178347Y45768D02*
Y49508D01*
X175394Y41732D02*
Y53543D01*
X181299Y41732D02*
Y53543D01*
X175394Y41732D02*
X181299D01*
X175394Y53543D02*
X181299D01*
X188681Y43307D02*
X192421D01*
X190551Y41437D02*
Y45177D01*
X193504Y37402D02*
Y49213D01*
X187598Y37402D02*
Y49213D01*
X193504D01*
X187598Y37402D02*
X193504D01*
X109941Y43307D02*
X113681D01*
X111811Y41437D02*
Y45177D01*
X114764Y37402D02*
Y49213D01*
X108858Y37402D02*
Y49213D01*
X114764D01*
X108858Y37402D02*
X114764D01*
X98130Y47244D02*
X101870D01*
X100000Y45374D02*
Y49114D01*
X97047Y41339D02*
Y53150D01*
X102953Y41339D02*
Y53150D01*
X97047Y41339D02*
X102953D01*
X97047Y53150D02*
X102953D01*
X90256Y43307D02*
X93996D01*
X92126Y41437D02*
Y45177D01*
X95079Y37402D02*
Y49213D01*
X89173Y37402D02*
Y49213D01*
X95079D01*
X89173Y37402D02*
X95079D01*
X78839Y47638D02*
X82579D01*
X80709Y45768D02*
Y49508D01*
X77756Y41732D02*
Y53543D01*
X83661Y41732D02*
Y53543D01*
X77756Y41732D02*
X83661D01*
X77756Y53543D02*
X83661D01*
X16535Y125689D02*
Y129429D01*
X14665Y127559D02*
X18406D01*
X10630Y124606D02*
X22441D01*
X10630Y130512D02*
X22441D01*
Y124606D02*
Y130512D01*
X10630Y124606D02*
Y130512D01*
X91929Y52165D02*
Y65945D01*
X108858Y52165D02*
Y65945D01*
X91929D02*
X108858D01*
X91929Y52165D02*
X108858D01*
X15551Y89961D02*
X26181D01*
X15551Y84055D02*
X26181D01*
X15551D02*
Y89961D01*
X26181Y84055D02*
Y89961D01*
X70276Y113583D02*
Y124213D01*
X64370Y113583D02*
Y124213D01*
X70276D01*
X64370Y113583D02*
X70276D01*
X30512Y75000D02*
X41142D01*
X30512Y80905D02*
X41142D01*
Y75000D02*
Y80905D01*
X30512Y75000D02*
Y80905D01*
X144193Y160236D02*
X147933D01*
X146063Y158366D02*
Y162106D01*
X149016Y154331D02*
Y166142D01*
X143110Y154331D02*
Y166142D01*
X149016D01*
X143110Y154331D02*
X149016D01*
X118209Y46850D02*
X121949D01*
X120079Y44980D02*
Y48720D01*
X117126Y40945D02*
Y52756D01*
X123031Y40945D02*
Y52756D01*
X117126Y40945D02*
X123031D01*
X117126Y52756D02*
X123031D01*
X128445Y164961D02*
X132185D01*
X130315Y163091D02*
Y166831D01*
X127362Y159055D02*
Y170866D01*
X133268Y159055D02*
Y170866D01*
X127362Y159055D02*
X133268D01*
X127362Y170866D02*
X133268D01*
X129232Y43307D02*
X132972D01*
X131102Y41437D02*
Y45177D01*
X134055Y37402D02*
Y49213D01*
X128150Y37402D02*
Y49213D01*
X134055D01*
X128150Y37402D02*
X134055D01*
X122932Y159842D02*
X126672D01*
X124802Y157972D02*
Y161712D01*
X127755Y153936D02*
Y165747D01*
X121850Y153936D02*
Y165747D01*
X127755D01*
X121850Y153936D02*
X127755D01*
X35138Y48031D02*
X38878D01*
X37008Y46161D02*
Y49902D01*
X34055Y42126D02*
Y53937D01*
X39961Y42126D02*
Y53937D01*
X34055Y42126D02*
X39961D01*
X34055Y53937D02*
X39961D01*
X138681Y47244D02*
X142421D01*
X140551Y45374D02*
Y49114D01*
X137598Y41339D02*
Y53150D01*
X143504Y41339D02*
Y53150D01*
X137598Y41339D02*
X143504D01*
X137598Y53150D02*
X143504D01*
X108760Y164567D02*
X112500D01*
X110630Y162697D02*
Y166437D01*
X107677Y158661D02*
Y170472D01*
X113583Y158661D02*
Y170472D01*
X107677Y158661D02*
X113583D01*
X107677Y170472D02*
X113583D01*
X51279Y43307D02*
X55020D01*
X53150Y41437D02*
Y45177D01*
X56102Y37402D02*
Y49213D01*
X50197Y37402D02*
Y49213D01*
X56102D01*
X50197Y37402D02*
X56102D01*
X149311Y43307D02*
X153051D01*
X151181Y41437D02*
Y45177D01*
X154134Y37402D02*
Y49213D01*
X148228Y37402D02*
Y49213D01*
X154134D01*
X148228Y37402D02*
X154134D01*
X102854Y160630D02*
X106595D01*
X104724Y158760D02*
Y162500D01*
X107677Y154724D02*
Y166535D01*
X101772Y154724D02*
Y166535D01*
X107677D01*
X101772Y154724D02*
X107677D01*
X59153Y46850D02*
X62894D01*
X61024Y44980D02*
Y48720D01*
X58071Y40945D02*
Y52756D01*
X63976Y40945D02*
Y52756D01*
X58071Y40945D02*
X63976D01*
X58071Y52756D02*
X63976D01*
X156398Y47244D02*
X160138D01*
X158268Y45374D02*
Y49114D01*
X155315Y41339D02*
Y53150D01*
X161221Y41339D02*
Y53150D01*
X155315Y41339D02*
X161221D01*
X155315Y53150D02*
X161221D01*
X90256Y164961D02*
X93996D01*
X92126Y163091D02*
Y166831D01*
X89173Y159055D02*
Y170866D01*
X95079Y159055D02*
Y170866D01*
X89173Y159055D02*
X95079D01*
X89173Y170866D02*
X95079D01*
X70965Y43307D02*
X74705D01*
X72835Y41437D02*
Y45177D01*
X75787Y37402D02*
Y49213D01*
X69882Y37402D02*
Y49213D01*
X75787D01*
X69882Y37402D02*
X75787D01*
X168602Y43307D02*
X172343D01*
X170472Y41437D02*
Y45177D01*
X173425Y37402D02*
Y49213D01*
X167520Y37402D02*
Y49213D01*
X173425D01*
X167520Y37402D02*
X173425D01*
X101772Y24606D02*
X118701D01*
X101772Y38386D02*
X118701D01*
Y24606D02*
Y38386D01*
X101772Y24606D02*
Y38386D01*
X180512Y24606D02*
X197441D01*
X180512Y38386D02*
X197441D01*
Y24606D02*
Y38386D01*
X180512Y24606D02*
Y38386D01*
X82087Y24606D02*
Y38386D01*
X99016Y24606D02*
Y38386D01*
X82087D02*
X99016D01*
X82087Y24606D02*
X99016D01*
X67520Y181299D02*
X84449D01*
X67520Y167520D02*
X84449D01*
X67520D02*
Y181299D01*
X84449Y167520D02*
Y181299D01*
X170669Y52165D02*
Y65945D01*
X187598Y52165D02*
Y65945D01*
X170669D02*
X187598D01*
X170669Y52165D02*
X187598D01*
X72244D02*
X89173D01*
X72244Y65945D02*
X89173D01*
Y52165D02*
Y65945D01*
X72244Y52165D02*
Y65945D01*
X95079Y143898D02*
Y157677D01*
X78150Y143898D02*
Y157677D01*
Y143898D02*
X95079D01*
X78150Y157677D02*
X95079D01*
X160827Y24606D02*
X177756D01*
X160827Y38386D02*
X177756D01*
Y24606D02*
Y38386D01*
X160827Y24606D02*
Y38386D01*
X62402Y24606D02*
Y38386D01*
X79331Y24606D02*
Y38386D01*
X62402D02*
X79331D01*
X62402Y24606D02*
X79331D01*
X88779Y181299D02*
X105709D01*
X88779Y167520D02*
X105709D01*
X88779D02*
Y181299D01*
X105709Y167520D02*
Y181299D01*
X150984Y52165D02*
Y65945D01*
X167913Y52165D02*
Y65945D01*
X150984D02*
X167913D01*
X150984Y52165D02*
X167913D01*
X53347Y51378D02*
X70276D01*
X53347Y65158D02*
X70276D01*
Y51378D02*
Y65158D01*
X53347Y51378D02*
Y65158D01*
X115551Y143898D02*
Y157677D01*
X98622Y143898D02*
Y157677D01*
Y143898D02*
X115551D01*
X98622Y157677D02*
X115551D01*
X141142Y24606D02*
X158071D01*
X141142Y38386D02*
X158071D01*
Y24606D02*
Y38386D01*
X141142Y24606D02*
Y38386D01*
X42717Y24606D02*
Y38386D01*
X59646Y24606D02*
Y38386D01*
X42717D02*
X59646D01*
X42717Y24606D02*
X59646D01*
X108858Y181299D02*
X125787D01*
X108858Y167520D02*
X125787D01*
X108858D02*
Y181299D01*
X125787Y167520D02*
Y181299D01*
X131299Y52165D02*
Y65945D01*
X148228Y52165D02*
Y65945D01*
X131299D02*
X148228D01*
X131299Y52165D02*
X148228D01*
X32874D02*
X49803D01*
X32874Y65945D02*
X49803D01*
Y52165D02*
Y65945D01*
X32874Y52165D02*
Y65945D01*
X135630Y143898D02*
Y157677D01*
X118701Y143898D02*
Y157677D01*
Y143898D02*
X135630D01*
X118701Y157677D02*
X135630D01*
X121457Y24606D02*
X138386D01*
X121457Y38386D02*
X138386D01*
Y24606D02*
Y38386D01*
X121457Y24606D02*
Y38386D01*
X145079Y167913D02*
Y181693D01*
X128150Y167913D02*
Y181693D01*
Y167913D02*
X145079D01*
X128150Y181693D02*
X145079D01*
X111614Y52165D02*
X128543D01*
X111614Y65945D02*
X128543D01*
Y52165D02*
Y65945D01*
X111614Y52165D02*
Y65945D01*
X156102Y143898D02*
Y157677D01*
X139173Y143898D02*
Y157677D01*
Y143898D02*
X156102D01*
X139173Y157677D02*
X156102D01*
M02*
