G04 Layer_Color=16711935*
%FSLAX25Y25*%
%MOIN*%
G70*
G01*
G75*
%ADD46C,0.00394*%
D46*
X124409Y92126D02*
G03*
X124409Y92126I-1969J0D01*
G01*
X186713Y169783D02*
X190453D01*
X186713Y176673D02*
X190453D01*
X186713Y169783D02*
Y176673D01*
X190453Y169783D02*
Y176673D01*
X162303Y169783D02*
X166043D01*
X162303Y176673D02*
X166043D01*
X162303Y169783D02*
Y176673D01*
X166043Y169783D02*
Y176673D01*
X180413Y122146D02*
X187303D01*
X180413Y125886D02*
X187303D01*
Y122146D02*
Y125886D01*
X180413Y122146D02*
Y125886D01*
X177657Y146555D02*
X181398D01*
X177657Y153445D02*
X181398D01*
X177657Y146555D02*
Y153445D01*
X181398Y146555D02*
Y153445D01*
X157579Y146555D02*
X161319D01*
X157579Y153445D02*
X161319D01*
X157579Y146555D02*
Y153445D01*
X161319Y146555D02*
Y153445D01*
X55610Y136319D02*
X59350D01*
X55610Y143209D02*
X59350D01*
X55610Y136319D02*
Y143209D01*
X59350Y136319D02*
Y143209D01*
X50689Y120571D02*
Y127461D01*
X46949Y120571D02*
Y127461D01*
X50689D01*
X46949Y120571D02*
X50689D01*
X35925Y135925D02*
X39665D01*
X35925Y142815D02*
X39665D01*
X35925Y135925D02*
Y142815D01*
X39665Y135925D02*
Y142815D01*
X22933Y170177D02*
X26673D01*
X22933Y177067D02*
X26673D01*
X22933Y170177D02*
Y177067D01*
X26673Y170177D02*
Y177067D01*
X61516Y165453D02*
X65256D01*
X61516Y172343D02*
X65256D01*
X61516Y165453D02*
Y172343D01*
X65256Y165453D02*
Y172343D01*
X88090Y158858D02*
Y165551D01*
X84350Y158858D02*
Y165551D01*
X88090D01*
X84350Y158858D02*
X88090D01*
X68209Y161221D02*
Y167913D01*
X71949Y161221D02*
Y167913D01*
X68209Y161221D02*
X71949D01*
X68209Y167913D02*
X71949D01*
X56398Y113189D02*
Y119882D01*
X60138Y113189D02*
Y119882D01*
X56398Y113189D02*
X60138D01*
X56398Y119882D02*
X60138D01*
X176476Y44291D02*
Y50984D01*
X180217Y44291D02*
Y50984D01*
X176476Y44291D02*
X180217D01*
X176476Y50984D02*
X180217D01*
X192421Y39961D02*
Y46654D01*
X188681Y39961D02*
Y46654D01*
X192421D01*
X188681Y39961D02*
X192421D01*
X113681D02*
Y46654D01*
X109941Y39961D02*
Y46654D01*
X113681D01*
X109941Y39961D02*
X113681D01*
X98130Y43898D02*
Y50591D01*
X101870Y43898D02*
Y50591D01*
X98130Y43898D02*
X101870D01*
X98130Y50591D02*
X101870D01*
X93996Y39961D02*
Y46654D01*
X90256Y39961D02*
Y46654D01*
X93996D01*
X90256Y39961D02*
X93996D01*
X78839Y44291D02*
Y50984D01*
X82579Y44291D02*
Y50984D01*
X78839Y44291D02*
X82579D01*
X78839Y50984D02*
X82579D01*
X86614Y127953D02*
X125984D01*
X86614Y88583D02*
X125984D01*
X86614D02*
Y127953D01*
X125984Y88583D02*
Y127953D01*
X13189Y125689D02*
X19882D01*
X13189Y129429D02*
X19882D01*
Y125689D02*
Y129429D01*
X13189Y125689D02*
Y129429D01*
X97047Y53150D02*
Y64961D01*
X103740Y53150D02*
Y64961D01*
X97047D02*
X103740D01*
X97047Y53150D02*
X103740D01*
X17421Y88878D02*
X24311D01*
X17421Y85138D02*
X24311D01*
X17421D02*
Y88878D01*
X24311Y85138D02*
Y88878D01*
X69193Y115453D02*
Y122343D01*
X65453Y115453D02*
Y122343D01*
X69193D01*
X65453Y115453D02*
X69193D01*
X32382Y76083D02*
X39272D01*
X32382Y79823D02*
X39272D01*
Y76083D02*
Y79823D01*
X32382Y76083D02*
Y79823D01*
X147933Y156890D02*
Y163583D01*
X144193Y156890D02*
Y163583D01*
X147933D01*
X144193Y156890D02*
X147933D01*
X118209Y43504D02*
Y50197D01*
X121949Y43504D02*
Y50197D01*
X118209Y43504D02*
X121949D01*
X118209Y50197D02*
X121949D01*
X128445Y161614D02*
Y168307D01*
X132185Y161614D02*
Y168307D01*
X128445Y161614D02*
X132185D01*
X128445Y168307D02*
X132185D01*
X132972Y39961D02*
Y46654D01*
X129232Y39961D02*
Y46654D01*
X132972D01*
X129232Y39961D02*
X132972D01*
X126672Y156495D02*
Y163188D01*
X122932Y156495D02*
Y163188D01*
X126672D01*
X122932Y156495D02*
X126672D01*
X35138Y44685D02*
Y51378D01*
X38878Y44685D02*
Y51378D01*
X35138Y44685D02*
X38878D01*
X35138Y51378D02*
X38878D01*
X138681Y43898D02*
Y50591D01*
X142421Y43898D02*
Y50591D01*
X138681Y43898D02*
X142421D01*
X138681Y50591D02*
X142421D01*
X108760Y161221D02*
Y167913D01*
X112500Y161221D02*
Y167913D01*
X108760Y161221D02*
X112500D01*
X108760Y167913D02*
X112500D01*
X55020Y39961D02*
Y46654D01*
X51279Y39961D02*
Y46654D01*
X55020D01*
X51279Y39961D02*
X55020D01*
X153051D02*
Y46654D01*
X149311Y39961D02*
Y46654D01*
X153051D01*
X149311Y39961D02*
X153051D01*
X106595Y157283D02*
Y163976D01*
X102854Y157283D02*
Y163976D01*
X106595D01*
X102854Y157283D02*
X106595D01*
X59153Y43504D02*
Y50197D01*
X62894Y43504D02*
Y50197D01*
X59153Y43504D02*
X62894D01*
X59153Y50197D02*
X62894D01*
X156398Y43898D02*
Y50591D01*
X160138Y43898D02*
Y50591D01*
X156398Y43898D02*
X160138D01*
X156398Y50591D02*
X160138D01*
X90256Y161614D02*
Y168307D01*
X93996Y161614D02*
Y168307D01*
X90256Y161614D02*
X93996D01*
X90256Y168307D02*
X93996D01*
X74705Y39961D02*
Y46654D01*
X70965Y39961D02*
Y46654D01*
X74705D01*
X70965Y39961D02*
X74705D01*
X172343D02*
Y46654D01*
X168602Y39961D02*
Y46654D01*
X172343D01*
X168602Y39961D02*
X172343D01*
X106890Y25591D02*
X113583D01*
X106890Y37402D02*
X113583D01*
Y25591D02*
Y37402D01*
X106890Y25591D02*
Y37402D01*
X185630Y25591D02*
X192323D01*
X185630Y37402D02*
X192323D01*
Y25591D02*
Y37402D01*
X185630Y25591D02*
Y37402D01*
X87205Y25591D02*
Y37402D01*
X93898Y25591D02*
Y37402D01*
X87205D02*
X93898D01*
X87205Y25591D02*
X93898D01*
X72638Y180315D02*
X79331D01*
X72638Y168504D02*
X79331D01*
X72638D02*
Y180315D01*
X79331Y168504D02*
Y180315D01*
X175787Y53150D02*
Y64961D01*
X182480Y53150D02*
Y64961D01*
X175787D02*
X182480D01*
X175787Y53150D02*
X182480D01*
X77362D02*
X84055D01*
X77362Y64961D02*
X84055D01*
Y53150D02*
Y64961D01*
X77362Y53150D02*
Y64961D01*
X89961Y144882D02*
Y156693D01*
X83268Y144882D02*
Y156693D01*
Y144882D02*
X89961D01*
X83268Y156693D02*
X89961D01*
X165945Y25591D02*
X172638D01*
X165945Y37402D02*
X172638D01*
Y25591D02*
Y37402D01*
X165945Y25591D02*
Y37402D01*
X67520Y25591D02*
Y37402D01*
X74213Y25591D02*
Y37402D01*
X67520D02*
X74213D01*
X67520Y25591D02*
X74213D01*
X93898Y180315D02*
X100591D01*
X93898Y168504D02*
X100591D01*
X93898D02*
Y180315D01*
X100591Y168504D02*
Y180315D01*
X156102Y53150D02*
Y64961D01*
X162795Y53150D02*
Y64961D01*
X156102D02*
X162795D01*
X156102Y53150D02*
X162795D01*
X58465Y52362D02*
X65158D01*
X58465Y64173D02*
X65158D01*
Y52362D02*
Y64173D01*
X58465Y52362D02*
Y64173D01*
X110433Y144882D02*
Y156693D01*
X103740Y144882D02*
Y156693D01*
Y144882D02*
X110433D01*
X103740Y156693D02*
X110433D01*
X146260Y25591D02*
X152953D01*
X146260Y37402D02*
X152953D01*
Y25591D02*
Y37402D01*
X146260Y25591D02*
Y37402D01*
X47835Y25591D02*
Y37402D01*
X54528Y25591D02*
Y37402D01*
X47835D02*
X54528D01*
X47835Y25591D02*
X54528D01*
X113976Y180315D02*
X120669D01*
X113976Y168504D02*
X120669D01*
X113976D02*
Y180315D01*
X120669Y168504D02*
Y180315D01*
X136417Y53150D02*
Y64961D01*
X143110Y53150D02*
Y64961D01*
X136417D02*
X143110D01*
X136417Y53150D02*
X143110D01*
X37992D02*
X44685D01*
X37992Y64961D02*
X44685D01*
Y53150D02*
Y64961D01*
X37992Y53150D02*
Y64961D01*
X130512Y144882D02*
Y156693D01*
X123819Y144882D02*
Y156693D01*
Y144882D02*
X130512D01*
X123819Y156693D02*
X130512D01*
X126575Y25591D02*
X133268D01*
X126575Y37402D02*
X133268D01*
Y25591D02*
Y37402D01*
X126575Y25591D02*
Y37402D01*
X139961Y168898D02*
Y180709D01*
X133268Y168898D02*
Y180709D01*
Y168898D02*
X139961D01*
X133268Y180709D02*
X139961D01*
X116732Y53150D02*
X123425D01*
X116732Y64961D02*
X123425D01*
Y53150D02*
Y64961D01*
X116732Y53150D02*
Y64961D01*
X150984Y144882D02*
Y156693D01*
X144291Y144882D02*
Y156693D01*
Y144882D02*
X150984D01*
X144291Y156693D02*
X150984D01*
M02*
